<?xml version="1.0" encoding="UTF-8" standalone="no"?>
<!DOCTYPE svg PUBLIC "-//W3C//DTD SVG 1.1//EN" "http://www.w3.org/Graphics/SVG/1.1/DTD/svg11.dtd">
<svg fill="currentColor"  width="100%" height="100%" viewBox="0 0 500 150" version="1.1" xmlns="http://www.w3.org/2000/svg" xmlns:xlink="http://www.w3.org/1999/xlink" xml:space="preserve" xmlns:serif="http://www.serif.com/" style="fill-rule:evenodd;clip-rule:evenodd;stroke-linejoin:round;stroke-miterlimit:2;">
    <g transform="matrix(1,0,0,1,-2.5259,0.114827)">
        <g transform="matrix(1,0,0,1,0,-175)">
            <path d="M427.078,248.948C410.729,247.563 384.385,237.146 364.146,224.068C348.589,213.995 332.536,199.531 326.182,189.901C324.854,187.927 324.016,187.385 324.016,188.521C324.016,188.865 324.755,190.891 325.693,193.109C329.24,201.307 332.193,213.156 334.208,227.177C334.901,231.917 335.099,236.458 335.099,249.885C335.099,263.313 334.901,267.854 334.208,272.594C332.193,286.615 329.24,298.464 325.693,306.656C324.755,308.88 324.016,310.906 324.016,311.25C324.016,312.385 324.854,311.844 326.182,309.865C332.536,300.24 348.589,285.776 364.146,275.703C384.385,262.62 410.729,252.203 427.078,250.823C429.536,250.578 430.87,250.281 430.87,249.885C430.87,249.49 429.536,249.193 427.078,248.948ZM420.182,250.578C419.443,250.625 419.052,250.328 419.052,249.833C419.052,249.146 419.396,249.094 420.922,249.344C421.906,249.49 423.089,249.641 423.484,249.688C424.417,249.786 421.661,250.479 420.182,250.578ZM416.542,250.427C415.703,250.281 414.521,250.13 413.979,250.13C412.354,250.13 413.193,249.786 415.75,249.443C417.719,249.146 418.068,249.193 418.068,249.932C418.068,250.578 417.771,250.677 416.542,250.427ZM413.292,248.453C412.75,247.911 413.583,247.516 414.469,247.911C415.307,248.307 415.307,248.307 414.469,248.5C413.979,248.651 413.438,248.599 413.292,248.453ZM413.833,252.104C413.438,252.104 413.141,251.911 413.141,251.615C413.141,251.365 413.583,251.12 414.177,251.12C414.719,251.12 415.01,251.365 414.865,251.615C414.719,251.911 414.224,252.104 413.833,252.104ZM409.151,249.146C407.578,249.146 407.234,248.995 407.234,248.156C407.234,247.365 407.578,247.172 408.859,247.172C410.531,247.172 411.813,248.01 411.37,248.75C411.224,248.948 410.234,249.146 409.151,249.146ZM408.906,252.599C407.578,252.599 407.234,252.401 407.234,251.615C407.234,250.776 407.578,250.625 409.104,250.625C410.141,250.625 411.172,250.776 411.318,250.969C411.958,251.615 410.531,252.599 408.906,252.599ZM406.641,246.036C406.25,245.885 406.396,245.74 406.938,245.74C407.479,245.688 407.776,245.839 407.578,245.984C407.432,246.135 406.984,246.182 406.641,246.036ZM406.641,253.932C406.25,253.786 406.396,253.635 406.938,253.635C407.479,253.589 407.776,253.734 407.578,253.885C407.432,254.031 406.984,254.083 406.641,253.932ZM403.984,248.354L402.063,247.958L403.786,247.615C404.917,247.365 405.609,247.464 405.854,247.813C406.349,248.651 406.052,248.75 403.984,248.354ZM404.917,252.401C404.526,252.255 403.74,252.104 403.146,252.057C402.161,252.005 402.161,251.958 403.292,251.615C405.359,250.922 406.25,251.021 405.901,251.911C405.755,252.302 405.313,252.552 404.917,252.401ZM394.922,250.724L391.229,249.932L394.875,249.047C398.224,248.255 398.714,248.255 402.063,249.047L405.656,249.885L402.161,250.724C398.865,251.464 398.37,251.464 394.922,250.724ZM400.833,246.724C398.073,246.823 393.938,245.885 393.938,245.094C393.938,244.505 402.208,244.604 403.391,245.245C404.87,246.036 403.885,246.625 400.833,246.724ZM398.271,255.068C395.906,255.068 393.938,254.87 393.938,254.672C393.938,253.932 398.073,252.948 400.781,253.047C403.984,253.141 404.724,253.49 403.542,254.427C402.901,254.823 401.125,255.068 398.271,255.068ZM387.781,243.073L384.828,241.984L389.016,241.839C391.771,241.74 394.479,241.984 396.891,242.578L400.583,243.417L395.661,243.813C391.229,244.109 390.443,244.057 387.781,243.073ZM390.49,257.833L384.828,258.031L387.047,256.995C389.406,255.859 390.49,255.76 396.646,256.005L400.583,256.156L398.37,256.896C397.141,257.339 393.693,257.734 390.49,257.833ZM386.453,248.354C384.88,247.911 383.599,247.365 383.599,247.172C383.599,246.974 385.073,246.479 386.896,246.135C389.948,245.443 390.391,245.49 393.25,246.427L396.349,247.417L392.807,248.307C389.406,249.193 389.115,249.193 386.453,248.354ZM390.198,254.229C389.115,254.281 383.599,252.948 383.599,252.599C383.599,252.453 384.828,251.911 386.354,251.417C388.964,250.578 389.26,250.578 392.755,251.417L396.448,252.302L393.594,253.24C392.016,253.734 390.49,254.182 390.198,254.229ZM375.719,237.443C371.781,235.521 365.771,232.063 362.328,229.792L356.073,225.693L353.953,221.448L351.839,217.203L357.745,221.25C367.891,228.26 379.313,234.729 388.672,238.828L392.464,240.505L387.682,240.75L382.859,241.047L375.719,237.443ZM382.859,263.755C374.292,267.906 366.219,272.646 357.797,278.469L351.839,282.568L353.953,278.323L356.073,274.073L362.328,269.979C365.771,267.708 371.781,264.25 375.719,262.328L382.859,258.771L387.781,258.917C391.823,259.068 392.464,259.214 391.474,259.661C390.786,259.958 386.948,261.781 382.859,263.755ZM383.354,245.688C380.594,246.229 380.198,246.182 377.688,245.047L374.979,243.865L378.625,243.021C382.219,242.182 382.318,242.182 384.979,243.271C387.979,244.505 387.781,244.802 383.354,245.688ZM378.724,256.745L374.979,255.906L377.688,254.724C380.495,253.49 381.729,253.438 385.813,254.625L387.781,255.219L385.125,256.401C382.417,257.589 382.417,257.589 378.724,256.745ZM377.839,251.068C376.115,250.526 374.734,249.984 374.734,249.885C374.734,249.786 376.115,249.292 377.74,248.698L380.792,247.661L383.896,248.75L386.995,249.833L380.891,252.104L377.839,251.068ZM369.318,240.901C367.005,239.667 363.703,237.74 361.932,236.604C358.828,234.583 358.682,234.432 357.745,231.078L356.714,227.667L362.078,231.172C364.984,233.151 370.302,236.208 373.849,238.036L380.297,241.396L376.901,242.281L373.505,243.12L369.318,240.901ZM373.797,261.734C370.255,263.557 364.984,266.62 362.078,268.594L356.714,272.099L357.745,268.693C358.682,265.339 358.828,265.188 361.932,263.167C363.703,262.031 367.005,260.104 369.318,258.87L373.505,256.646L376.802,257.438C378.672,257.932 380.151,258.328 380.151,258.375C380.151,258.427 377.297,259.958 373.797,261.734ZM370.255,247.958L367.594,246.724L369.813,245.74C372.62,244.453 373.453,244.453 376.505,245.786L379.068,246.922L375.964,248.057L372.911,249.193L370.255,247.958ZM373.109,255.068C372.521,255.068 371.042,254.573 369.813,254.031L367.594,253.047L370.255,251.813L372.865,250.578L375.964,251.661L379.021,252.797L376.604,253.932C375.229,254.573 373.651,255.068 373.109,255.068ZM368.63,244.901L365.969,245.839L362.969,244.156C360.354,242.724 359.911,242.281 359.667,240.75C359.521,239.813 359.276,238.38 359.125,237.594L358.88,236.109L360.26,237.047C363.063,238.875 370.5,243.219 370.896,243.219C371.089,243.219 371.286,243.417 371.286,243.615C371.286,243.813 370.104,244.406 368.63,244.901ZM363.557,251.219L360.948,249.932L363.51,248.599L366.068,247.271L371.286,249.833L368.729,251.167L366.167,252.5L363.557,251.219ZM370.896,256.552C370.5,256.552 363.063,260.896 360.26,262.719L358.88,263.656L359.125,262.177C359.276,261.385 359.521,259.958 359.667,259.016C359.911,257.49 360.354,257.042 362.969,255.609L365.969,253.932L368.63,254.87C370.104,255.365 371.286,255.958 371.286,256.156C371.286,256.354 371.089,256.552 370.896,256.552ZM362.427,247.661C361.391,248.208 360.354,248.651 360.208,248.651C360.063,248.651 359.964,247.661 359.964,246.427C359.964,245.193 360.063,244.208 360.26,244.208C360.552,244.208 364.396,246.38 364.396,246.526C364.396,246.625 363.51,247.12 362.427,247.661ZM360.354,255.563C360.109,255.563 359.964,254.573 359.964,253.339C359.964,252.104 360.063,251.12 360.208,251.12C360.354,251.12 361.391,251.563 362.521,252.156L364.542,253.193L362.62,254.375C361.536,255.021 360.552,255.563 360.354,255.563ZM357.745,247.958C357.057,247.516 355.974,246.823 355.333,246.38C354.349,245.74 354.104,245.146 353.953,242.724C353.859,240.849 354.005,239.964 354.302,240.161C359.026,243.271 358.979,243.172 358.979,246.036L358.979,248.75L357.745,247.958ZM356.911,257.833C355.729,258.625 354.594,259.411 354.302,259.609C354.005,259.807 353.859,258.917 353.953,257.042C354.104,254.625 354.349,254.031 355.333,253.391C355.974,252.948 357.057,252.255 357.745,251.813L358.979,251.021L358.979,253.734C358.979,256.354 358.927,256.453 356.911,257.833ZM357.109,240.406C353.859,238.281 353.661,238.036 353.12,235.125C352.823,233.495 352.677,232.115 352.776,232.016C352.87,231.917 354.052,232.703 355.432,233.792C357.943,235.813 358.141,236.208 358.385,240.161L358.484,241.344L357.109,240.406ZM354.151,251.12C354.052,250.281 354.052,249.094 354.151,248.406L354.302,247.219L356.37,248.552L358.438,249.833L356.37,251.219L354.302,252.599L354.151,251.12ZM357.995,263.068C357.995,263.854 353.167,268.151 352.776,267.755C352.677,267.656 352.823,266.276 353.12,264.646C353.661,261.734 353.859,261.484 357.156,259.266L358.635,258.328L358.339,260.25C358.141,261.339 357.995,262.62 357.995,263.068ZM354.693,231.62C352.625,230.036 352.182,229.396 351.245,226.385C350.115,222.781 350.167,222.734 353.167,225.052C354.448,226.042 355.234,227.276 355.927,229.297C357.354,233.396 357.255,233.594 354.693,231.62ZM355.974,270.276C355.234,272.547 354.495,273.682 353.167,274.719C350.167,277.036 350.115,276.99 351.245,273.385C352.182,270.375 352.625,269.729 354.693,268.151C355.974,267.161 357.01,266.573 357.01,266.818C357.01,267.016 356.568,268.594 355.974,270.276ZM352.87,223.125C350.802,221.891 349.13,219.818 347.552,216.464C346.568,214.339 345.88,212.615 346.078,212.615C346.667,212.615 350.26,217.349 351.938,220.365C353.76,223.62 353.807,223.672 352.87,223.125ZM348.589,284.49C347.458,285.823 346.375,286.958 346.125,287.057C345.88,287.156 346.521,285.479 347.505,283.354C349.177,279.901 350.802,277.875 352.969,276.594C354.052,275.953 350.854,281.677 348.589,284.49ZM350.656,242.776C348.245,240.75 347.651,239.417 347.651,236.208L347.651,234.729L350.068,236.755C352.578,238.875 352.87,239.516 353.021,242.875L353.068,244.802L350.656,242.776ZM350.708,255.219L348.391,257.141L348.245,253.635C348.146,251.76 348.146,248.5 348.245,246.427L348.391,242.63L350.708,244.552L353.068,246.427L353.068,253.339L350.708,255.219ZM350.26,262.818C347.651,265.141 347.307,264.943 347.901,261.193C348.146,259.411 348.589,258.724 350.708,256.943L353.219,254.823L352.922,257.781C352.677,260.547 352.479,260.896 350.26,262.818ZM351.74,236.307C351.495,236.26 350.411,235.422 349.328,234.432C347.703,232.953 347.161,232.063 346.719,229.99C345.927,226.188 345.927,226.188 348.589,228.411C350.26,229.792 351.198,231.078 351.495,232.26C352.083,234.531 352.182,236.307 351.74,236.307ZM351.542,267.161C351.151,268.792 350.411,269.781 348.589,271.359C345.927,273.583 345.927,273.583 346.719,269.781C347.161,267.708 347.703,266.818 349.328,265.339C350.411,264.349 351.495,263.51 351.74,263.464C352.234,263.464 352.182,264.646 351.542,267.161ZM348.047,226.188C345.833,224.214 345.292,223.375 344.599,220.807C344.156,219.177 343.859,217.745 343.958,217.646C344.057,217.547 345.094,218.339 346.224,219.427C347.75,220.854 348.635,222.24 349.427,224.51C350.016,226.24 350.557,227.865 350.557,228.063C350.609,228.313 349.427,227.474 348.047,226.188ZM349.328,275.458C348.688,277.578 347.901,278.865 346.276,280.297C345.094,281.432 344.057,282.219 343.958,282.12C343.859,282.026 344.156,280.594 344.599,278.964C345.339,276.396 345.833,275.557 348.094,273.531C349.573,272.198 350.656,271.458 350.51,271.854C350.359,272.25 349.818,273.88 349.328,275.458ZM344.599,260.896L341.99,263.411L341.99,236.359L344.599,238.875L347.161,241.443L347.161,258.328L344.599,260.896ZM344.302,215.922C342.63,214.292 340.417,209.849 340.958,209.255C341.401,208.859 343.516,211.573 345.094,214.438C345.927,216.021 346.521,217.401 346.375,217.5C346.276,217.646 345.339,216.906 344.302,215.922ZM344.453,236.802C342.234,234.63 341.547,233.25 341.057,229.646L340.807,227.667L343.37,230.583C346.125,233.693 346.521,234.583 346.62,237.297L346.667,238.974L344.453,236.802ZM346.276,265.24C346.078,265.781 344.797,267.557 343.37,269.188L340.807,272.099L341.057,270.125C341.547,266.521 342.234,265.141 344.453,262.969L346.667,260.797L346.62,262.474C346.568,263.411 346.422,264.646 346.276,265.24ZM342.385,289.427C340.807,291.156 340.563,290.714 341.547,288.094C342.333,286.021 345.438,282.219 346.323,282.219C346.917,282.219 343.813,287.896 342.385,289.427ZM343.026,228.161C340.958,225.891 340.266,224.708 340.021,223.031C339.823,221.844 339.578,220.51 339.432,220.068C339.281,219.62 340.318,220.51 341.792,221.99C343.859,224.115 344.552,225.25 344.995,227.177C345.927,231.172 345.781,231.271 343.026,228.161ZM344.896,273.036C344.651,274.521 343.859,275.703 341.844,277.729C340.365,279.26 339.234,280.146 339.432,279.703C339.578,279.26 339.823,277.927 340.021,276.74C340.266,275.016 340.958,273.927 343.073,271.609C345.24,269.24 345.734,268.891 345.536,269.88C345.385,270.568 345.094,272 344.896,273.036ZM343.516,221.99C343.417,221.99 342.333,220.807 341.057,219.328C339.526,217.547 338.495,215.625 337.854,213.552L336.87,210.49L339.333,212.906C341.203,214.734 341.99,216.021 342.677,218.292C343.714,221.5 343.813,221.99 343.516,221.99ZM342.583,281.729C341.99,283.802 341.203,285.036 339.333,286.859L336.87,289.281L337.854,286.219C338.495,284.146 339.526,282.219 341.057,280.443C343.318,277.776 344.01,277.234 343.568,278.422C343.469,278.714 343.026,280.245 342.583,281.729ZM339.578,266.672C338.792,267.708 337.51,269.682 336.724,271.063L335.292,273.583L335.688,268.891C335.885,266.323 336.083,257.781 336.083,249.885C336.083,242.036 335.885,233.448 335.688,230.88L335.292,226.188L336.724,228.708C337.51,230.089 338.693,231.964 339.38,232.901C341.057,235.073 341.151,236.063 341.057,251.661L341.005,264.792L339.578,266.672ZM340.12,211.625C340.021,211.625 339.333,210.984 338.542,210.146C337.458,209.01 337.313,208.661 337.953,208.661C338.396,208.661 339.083,209.255 339.479,210.047C340.318,211.474 340.365,211.625 340.12,211.625ZM340.021,231.37C339.526,231.37 335.833,224.411 334.901,221.646C333.568,217.646 333.62,217.349 335.193,220.016C335.885,221.25 337.167,223.078 337.953,224.167C339.281,225.844 340.021,227.964 340.219,230.531C340.219,230.979 340.167,231.37 340.021,231.37ZM338.349,274.964C337.656,276 336.328,277.974 335.49,279.406C333.568,282.417 333.521,282.271 334.901,278.125C335.833,275.26 339.526,268.396 340.068,268.396C340.76,268.396 339.479,273.333 338.349,274.964ZM337.953,291.109C337.313,291.109 337.458,290.76 338.542,289.625C339.333,288.839 340.021,288.146 340.12,288.146C340.219,288.146 339.974,288.839 339.526,289.625C339.083,290.464 338.396,291.109 337.953,291.109ZM337.755,221.5C336.276,219.719 333.865,214.786 333.865,213.552C333.865,212.661 334.208,212.906 335.641,214.833C338.151,218.094 340.068,224.313 337.755,221.5ZM338.099,280.344C337.266,283.161 333.865,287.849 333.865,286.219C333.865,284.984 336.276,280.047 337.755,278.271C338.938,276.792 339.036,277.286 338.099,280.344ZM337.313,207.677C336.526,207.677 334.849,205.552 334.849,204.469C334.849,203.625 336.375,204.469 337.266,205.849C338.495,207.776 338.495,207.677 337.313,207.677ZM335.932,295.401C334.849,295.849 334.75,295.203 335.589,293.625C336.031,292.688 336.724,292.094 337.359,292.094C338.349,292.094 338.349,292.146 337.458,293.625C336.969,294.464 336.276,295.302 335.932,295.401ZM336.083,213.104C335.589,213.104 334.849,211.083 335.146,210.536C335.391,210.146 335.641,210.292 335.885,210.932C336.328,212.021 336.427,213.104 336.083,213.104ZM335.885,288.839C335.641,289.479 335.391,289.625 335.146,289.229C334.849,288.688 335.589,286.667 336.083,286.667C336.427,286.667 336.328,287.75 335.885,288.839ZM333.865,202.245C333.125,201.057 333.323,200.417 334.109,201.453C334.505,202 334.703,202.542 334.557,202.688C334.406,202.839 334.109,202.641 333.865,202.245ZM334.063,209.5C333.474,209.698 331.948,206.688 332.24,205.849C332.391,205.453 332.88,205.75 333.667,206.589C334.849,207.922 335.047,209.156 334.063,209.5ZM333.667,293.13C332.24,294.807 331.698,294.021 332.781,291.849C333.719,289.974 333.719,289.974 334.307,290.365C335.146,290.859 334.948,291.552 333.667,293.13ZM333.568,298.859C333.224,298.51 333.917,297.031 334.406,297.031C334.703,297.031 334.651,297.474 334.359,298.068C334.016,298.609 333.667,299.005 333.568,298.859ZM332.88,211.625C332.635,211.625 332.391,211.38 332.391,211.083C332.391,210.833 332.635,210.734 332.88,210.885C333.177,211.031 333.375,211.281 333.375,211.427C333.375,211.526 333.177,211.625 332.88,211.625ZM332.88,288.885C332.635,289.031 332.391,288.938 332.391,288.688C332.391,288.391 332.635,288.146 332.88,288.146C333.177,288.146 333.375,288.245 333.375,288.344C333.375,288.49 333.177,288.74 332.88,288.885ZM331.651,201.651C330.323,199.677 330.172,199.281 330.813,199.281C331.255,199.281 332.781,202.099 332.833,202.984C332.88,203.234 332.339,202.641 331.651,201.651ZM332.042,298.76C331.599,299.698 331.057,300.49 330.813,300.49C330.172,300.49 330.323,300.042 331.651,298.12C333.078,295.995 333.224,296.24 332.042,298.76ZM330.911,204.219C330.271,203.234 330.271,202.589 330.911,202.984C331.208,203.135 331.406,203.677 331.406,204.12C331.406,204.859 331.307,204.859 330.911,204.219ZM330.911,296.786C330.271,297.177 330.271,296.536 330.911,295.552C331.307,294.906 331.406,294.906 331.406,295.651C331.406,296.094 331.208,296.635 330.911,296.786ZM329.682,198.297C329.385,198.297 327.958,195.531 327.958,194.99C328.005,194.344 329.927,197.01 329.927,197.703C329.927,198 329.828,198.297 329.682,198.297ZM328.943,303.943C328.401,304.635 327.958,304.979 327.958,304.781C327.958,304.24 329.385,301.474 329.682,301.474C330.224,301.474 329.828,302.807 328.943,303.943Z" style="fill:white;fill-rule:nonzero;"/>
        </g>
        <g transform="matrix(1,0,0,1,72.3688,87.207)">
            <g>
                <g>
                    <path d="M12.979,0.5C10.797,0.5 8.875,0.13 7.208,-0.604C5.552,-1.354 4.25,-2.422 3.292,-3.812C2.333,-5.214 1.839,-6.917 1.813,-8.917L7.521,-8.917C7.573,-7.542 8.073,-6.38 9.021,-5.437C9.964,-4.49 11.271,-4.021 12.938,-4.021C14.365,-4.021 15.505,-4.359 16.354,-5.042C17.198,-5.734 17.625,-6.656 17.625,-7.812C17.625,-9.021 17.25,-9.964 16.5,-10.646C15.75,-11.323 14.755,-11.875 13.521,-12.292C12.281,-12.719 10.958,-13.172 9.542,-13.646C7.26,-14.437 5.526,-15.448 4.333,-16.687C3.135,-17.922 2.542,-19.568 2.542,-21.625C2.51,-23.375 2.922,-24.875 3.771,-26.125C4.63,-27.385 5.802,-28.359 7.292,-29.042C8.792,-29.734 10.51,-30.083 12.458,-30.083C14.427,-30.083 16.167,-29.729 17.667,-29.021C19.177,-28.323 20.365,-27.339 21.229,-26.062C22.089,-24.797 22.547,-23.292 22.604,-21.542L16.813,-21.542C16.781,-22.583 16.38,-23.505 15.604,-24.312C14.839,-25.115 13.76,-25.521 12.375,-25.521C11.193,-25.547 10.198,-25.255 9.396,-24.646C8.589,-24.047 8.188,-23.172 8.188,-22.021C8.188,-21.031 8.5,-20.25 9.125,-19.667C9.75,-19.083 10.594,-18.594 11.667,-18.208C12.734,-17.818 13.958,-17.396 15.333,-16.937C16.802,-16.437 18.146,-15.844 19.354,-15.167C20.563,-14.484 21.526,-13.589 22.25,-12.479C22.984,-11.365 23.354,-9.937 23.354,-8.187C23.354,-6.646 22.958,-5.208 22.167,-3.875C21.385,-2.552 20.219,-1.49 18.667,-0.687C17.125,0.104 15.229,0.5 12.979,0.5Z" style="fill:white;fill-rule:nonzero;"/>
                </g>
            </g>
        </g>
        <g transform="matrix(1,0,0,1,104.131,87.207)">
            <g>
                <g>
                    <path d="M2.875,0L2.875,-29.583L8.271,-29.583L22.188,-8.75L22.188,-29.583L27.583,-29.583L27.583,0L22.188,0L8.271,-20.792L8.271,0L2.875,0Z" style="fill:white;fill-rule:nonzero;"/>
                </g>
            </g>
        </g>
        <g transform="matrix(1,0,0,1,141.13,87.207)">
            <g>
                <g>
                    <path d="M0.979,0L11.792,-29.583L17.875,-29.583L28.688,0L22.938,0L20.583,-6.854L9.042,-6.854L6.625,0L0.979,0ZM10.521,-11.062L19.104,-11.062L14.792,-23.354L10.521,-11.062Z" style="fill:white;fill-rule:nonzero;"/>
                </g>
            </g>
        </g>
        <g transform="matrix(1,0,0,1,177.285,87.207)">
            <g>
                <g>
                    <path d="M2.875,0L2.875,-29.583L13.813,-29.583C16.188,-29.583 18.146,-29.187 19.688,-28.396C21.24,-27.604 22.396,-26.51 23.146,-25.125C23.906,-23.75 24.292,-22.208 24.292,-20.5C24.292,-18.859 23.922,-17.354 23.188,-15.979C22.464,-14.615 21.323,-13.521 19.771,-12.687C18.229,-11.865 16.24,-11.458 13.813,-11.458L8.271,-11.458L8.271,0L2.875,0ZM8.271,-15.833L13.479,-15.833C15.365,-15.833 16.719,-16.25 17.542,-17.083C18.375,-17.917 18.792,-19.052 18.792,-20.5C18.792,-21.958 18.375,-23.104 17.542,-23.937C16.719,-24.771 15.365,-25.187 13.479,-25.187L8.271,-25.187L8.271,-15.833Z" style="fill:white;fill-rule:nonzero;"/>
                </g>
            </g>
        </g>
        <g transform="matrix(1,0,0,1,209.454,87.207)">
            <g>
                <g>
                    <path d="M3.125,0L3.125,-29.583L21.125,-29.583L21.125,-26.667L6.667,-26.667L6.667,-16.271L18.979,-16.271L18.979,-13.396L6.667,-13.396L6.667,0L3.125,0Z" style="fill:white;fill-rule:nonzero;"/>
                </g>
            </g>
        </g>
        <g transform="matrix(1,0,0,1,238.555,87.207)">
            <g>
                <g>
                    <path d="M3.125,0L3.125,-29.583L6.667,-29.583L6.667,-2.833L20.458,-2.833L20.458,0L3.125,0Z" style="fill:white;fill-rule:nonzero;"/>
                </g>
            </g>
        </g>
        <g transform="matrix(1,0,0,1,267.277,87.207)">
            <g>
                <g>
                    <rect x="3.125" y="-29.583" width="3.542" height="29.583" style="fill:white;"/>
                </g>
            </g>
        </g>
        <g transform="matrix(1,0,0,1,283.625,87.207)">
            <g>
                <g>
                    <path d="M1.604,0L10.646,-14.917L1.604,-29.583L5.625,-29.583L12.896,-17.75L19.813,-29.583L23.792,-29.583L14.75,-14.75L23.833,0L19.813,0L12.5,-11.875L5.625,0L1.604,0Z" style="fill:white;fill-rule:nonzero;"/>
                </g>
            </g>
        </g>
    </g>
</svg>
